<?xml version="1.0" encoding="UTF-8"?>
<svg xmlns="http://www.w3.org/2000/svg" xmlns:xlink="http://www.w3.org/1999/xlink" width="288pt" height="288pt" viewBox="0 0 288 288" version="1.1">
<g id="surface1">
<rect x="0" y="0" width="288" height="288" style="fill:rgb(100%,100%,100%);fill-opacity:1;stroke:none;"/>
<rect x="0" y="0" width="288" height="288" style="fill:rgb(100%,100%,100%);fill-opacity:1;stroke:none;"/>
<path style="fill:none;stroke-width:0.75;stroke-linecap:round;stroke-linejoin:round;stroke:rgb(100%,100%,100%);stroke-opacity:1;stroke-miterlimit:10;" d="M 0 288 L 288 288 L 288 0 L 0 0 Z "/>
<path style="fill:none;stroke-width:0.75;stroke-linecap:round;stroke-linejoin:round;stroke:rgb(0%,0%,0%);stroke-opacity:1;stroke-miterlimit:10;" d="M 101.109375 5.363281 L 100.269531 29.394531 L 98.75 74.039062 L 98.757812 81.714844 L 98.367188 85.457031 L 98.214844 90.054688 L 98.167969 91.417969 L 98.117188 92.953125 L 98.3125 95.175781 L 101.160156 97.65625 L 107.90625 104.164062 L 113.386719 109.253906 L 117.710938 113.28125 L 134.367188 128.933594 L 147.753906 141.1875 L 163.46875 155.917969 L 194.398438 184.886719 L 199.863281 189.925781 L 225.539062 213.632812 L 225.71875 215.332031 L 226.332031 217.53125 L 227.328125 218.1875 L 227.902344 218.683594 L 227.773438 219.027344 L 227.230469 219.894531 L 230.394531 222.710938 L 231.171875 225.589844 L 231.609375 226.257812 L 232.40625 229.816406 L 234.558594 231.121094 L 237.59375 233.59375 L 238.332031 234.765625 L 238.503906 235.785156 L 237.105469 236.335938 L 236.152344 237.722656 L 234.488281 239.132812 L 232.113281 240.386719 L 231.574219 241.421875 L 230.894531 242.632812 L 230.34375 243.328125 L 230.78125 243.828125 L 229.246094 244.886719 L 228.710938 246.09375 L 228.8125 250.347656 L 229.273438 251.871094 L 228.871094 252.902344 L 229.203125 254.765625 L 228.53125 256.488281 L 228.265625 257.34375 L 226.992188 257.886719 L 227.296875 258.730469 L 226.597656 259.257812 L 226.332031 260.113281 L 225.347656 260.816406 L 224.367188 261.691406 L 224.683594 263.046875 L 224.140625 264.421875 L 225.457031 265.753906 L 224.96875 269.679688 L 225.289062 271.207031 L 226.3125 272.035156 L 229.332031 272.308594 L 230.796875 273.636719 L 230.984375 275.503906 L 231.027344 277.207031 L 229.914062 278.765625 L 229.238281 280.65625 L 228.246094 281.359375 L 226.664062 281.394531 L 225.796875 281.242188 L 224.652344 281.609375 L 190.304688 285.355469 L 164.960938 288 L 164.960938 285.617188 L 164.675781 284.9375 L 163.8125 284.253906 L 163.667969 283.746094 L 163.957031 283.574219 L 165.25 284.9375 L 165.683594 285.277344 L 165.683594 284.597656 L 165.394531 283.578125 L 164.675781 283.066406 L 164.101562 282.554688 L 163.816406 282.214844 L 163.238281 282.210938 L 162.808594 283.0625 L 162.519531 283.230469 L 162.089844 282.890625 L 161.945312 281.699219 L 162.523438 281.191406 L 162.667969 280.679688 L 162.523438 280.339844 L 162.09375 280 L 161.519531 279.488281 L 161.378906 278.636719 L 161.957031 277.957031 L 162.101562 276.765625 L 161.675781 274.550781 L 161.535156 273.359375 L 160.679688 271.148438 L 159.824219 269.785156 L 158.972656 267.910156 L 157.691406 266.371094 L 156.984375 265.007812 L 155.988281 264.152344 L 154.707031 263.125 L 153.710938 262.269531 L 153.289062 261.417969 L 151.722656 260.554688 L 150.871094 259.871094 L 150.023438 259.183594 L 149.316406 258.15625 L 148.1875 256.789062 L 147.054688 255.757812 L 146.203125 255.410156 L 145.632812 255.40625 L 144.644531 254.546875 L 142.8125 252.65625 L 141.542969 251.792969 L 140.976562 251.445312 L 140.695312 251.101562 L 139.5625 250.75 L 138.714844 250.570312 L 137.855469 251.070312 L 137.144531 251.0625 L 137.136719 251.742188 L 136.84375 252.25 L 135.992188 252.242188 L 135.429688 251.894531 L 134.859375 251.714844 L 133.871094 251.363281 L 133.308594 250.84375 L 133.316406 250.164062 L 133.753906 249.488281 L 133.90625 248.640625 L 133.363281 246.929688 L 132.113281 244.871094 L 131.84375 244.015625 L 131.140625 243.492188 L 129.871094 243.132812 L 126.757812 242.746094 L 125.050781 243.058594 L 123.917969 243.207031 L 123.070312 243.023438 L 120.109375 242.117188 L 119.691406 241.769531 L 118.5625 241.40625 L 117.730469 240.539062 L 117.023438 240.523438 L 115.886719 240.671875 L 114.496094 239.453125 L 113.554688 237.21875 L 112.871094 236.011719 L 112.605469 235.324219 L 110.363281 234.421875 L 108.84375 233.023438 L 107.742188 231.804688 L 106.480469 231.433594 L 105.363281 230.894531 L 104.238281 230.695312 L 102.105469 231.320312 L 100.703125 230.941406 L 99.4375 230.738281 L 97.882812 230.867188 L 96.761719 230.492188 L 95.230469 229.765625 L 94.109375 229.5625 L 92.414062 229.511719 L 90.871094 229.296875 L 87.199219 229.351562 L 84.089844 229.417969 L 83.394531 229.054688 L 81.785156 226.609375 L 80.113281 226.039062 L 79.136719 225.664062 L 78.90625 224.292969 L 79.8125 222.621094 L 79.871094 220.917969 L 79.210938 219.699219 L 79.394531 218.511719 L 80.28125 217.347656 L 79.613281 216.300781 L 79.351562 215.78125 L 78.957031 215.085938 L 79.261719 214.414062 L 79.316406 212.878906 L 79.78125 211.703125 L 80 209.496094 L 79.484375 208.28125 L 78.664062 207.738281 L 77.832031 207.539062 L 77.671875 208.042969 L 77.113281 208.023438 L 76.03125 206.960938 L 74.800781 206.230469 L 73.882812 204.660156 L 73.914062 203.808594 L 74.652344 202.8125 L 74.933594 202.824219 L 75.339844 203.179688 L 75.625 203.019531 L 75 201.121094 L 74.347656 199.898438 L 74.234375 199.214844 L 73.257812 199.175781 L 71.3125 198.925781 L 70.519531 197.871094 L 68.933594 195.757812 L 67.75 194.003906 L 66.800781 193.449219 L 65.589844 192.375 L 64.789062 191.65625 L 64.285156 190.441406 L 64.335938 189.246094 L 63.519531 188.871094 L 62.867188 187.816406 L 61.9375 186.921875 L 61.132812 186.203125 L 60.347656 185.140625 L 59.878906 183.242188 L 59.242188 182.019531 L 58.304688 181.292969 L 57.546875 179.71875 L 56.402344 177.613281 L 55.335938 176.710938 L 54.6875 175.824219 L 53.867188 175.613281 L 52.65625 174.871094 L 51.613281 173.621094 L 50.828125 172.730469 L 50.871094 171.875 L 50.921875 170.855469 L 50.355469 168.433594 L 50.269531 167.402344 L 49.488281 166.507812 L 49.503906 166.167969 L 50.0625 166.027344 L 49.839844 164.988281 L 49.574219 164.804688 L 50.046875 163.632812 L 50.625 163.148438 L 51.578125 163.367188 L 51.980469 163.558594 L 52.984375 162.757812 L 53.628906 160.910156 L 53.988281 159.21875 L 53.941406 157.335938 L 53.824219 156.988281 L 54.003906 156.144531 L 53.222656 155.25 L 52.464844 154.015625 L 51.269531 153.269531 L 50.738281 152.902344 L 50.300781 153.390625 L 49.617188 153.355469 L 49.226562 152.996094 L 48.25 153.285156 L 47.703125 153.257812 L 46.089844 152.65625 L 44.777344 151.5625 L 43.601562 150.46875 L 43.121094 149.246094 L 42.605469 148.707031 L 41.804688 148.320312 L 41.570312 147.621094 L 41.179688 147.257812 L 40.828125 146.210938 L 40.058594 145.3125 L 39.71875 144.097656 L 39.941406 142.570312 L 40.292969 141.222656 L 40.242188 139.679688 L 39.71875 139.308594 L 39.359375 138.433594 L 39.429688 137.238281 L 39.1875 136.710938 L 38.253906 136.316406 L 37.910156 135.269531 L 37.949219 134.585938 L 38.019531 133.394531 L 38.726562 132.921875 L 38.757812 132.410156 L 38.523438 131.710938 L 38.84375 130.875 L 38.605469 130.347656 L 38.414062 128.96875 L 38.453125 128.285156 L 39.003906 128.148438 L 39.277344 128.164062 L 40.128906 127.527344 L 40.378906 127.886719 L 40.785156 127.910156 L 41.730469 127.964844 L 41.703125 128.476562 L 41.796875 129.164062 L 42.15625 130.039062 L 41.605469 130.179688 L 41.175781 130.496094 L 41.148438 131.007812 L 41.378906 131.707031 L 41.757812 132.242188 L 41.582031 132.914062 L 41.410156 133.589844 L 42.203125 133.976562 L 43.539062 134.394531 L 44.324219 134.949219 L 44.832031 135.664062 L 45.753906 136.226562 L 46.683594 136.621094 L 47.199219 137.160156 L 47.460938 137.34375 L 47.839844 137.878906 L 48.230469 138.242188 L 49.164062 138.632812 L 49.980469 138.675781 L 50.550781 138.195312 L 50.414062 138.1875 L 50.441406 137.675781 L 49.371094 137.277344 L 48.320312 136.539062 L 47.671875 135.988281 L 47.339844 134.605469 L 46.886719 132.871094 L 46.296875 131.296875 L 45.269531 130.214844 L 44.097656 129.296875 L 43.335938 128.398438 L 43.535156 127.210938 L 43.429688 126.691406 L 43.46875 126.011719 L 43.519531 125.15625 L 42.871094 124.609375 L 42.214844 124.230469 L 41.550781 124.019531 L 41.195312 123.144531 L 41.476562 122.988281 L 41.917969 122.328125 L 42.226562 121.664062 L 42.246094 121.324219 L 43.328125 121.382812 L 44 121.421875 L 44.445312 120.765625 L 45.136719 120.460938 L 44.730469 120.4375 L 46.609375 120.714844 L 47.273438 120.921875 L 47.03125 120.394531 L 46.109375 120.003906 L 45.195312 119.4375 L 44.414062 118.882812 L 44.464844 118.027344 L 43.675781 117.640625 L 43.117188 117.953125 L 42.203125 117.386719 L 41.695312 116.84375 L 41.167969 116.640625 L 40.597656 117.121094 L 40.425781 117.796875 L 40.011719 117.941406 L 39.347656 117.730469 L 38.675781 117.691406 L 39.046875 118.226562 L 39.453125 118.25 L 39.234375 119.609375 L 38.925781 120.273438 L 38.875 121.125 L 39.136719 121.3125 L 39.789062 121.691406 L 40.050781 121.878906 L 40.019531 122.390625 L 39.335938 122.523438 L 39.171875 123.023438 L 39.273438 123.542969 L 39.515625 124.070312 L 40.027344 124.613281 L 40.410156 124.980469 L 40.382812 125.492188 L 40.101562 125.644531 L 39.589844 125.101562 L 39.195312 124.910156 L 38.914062 125.0625 L 39.144531 125.761719 L 39.238281 126.449219 L 39.085938 126.785156 L 38.417969 126.574219 L 38.023438 126.378906 L 37.378906 125.828125 L 37.003906 125.292969 L 35.941406 124.886719 L 35.441406 124.171875 L 35.058594 123.804688 L 34.789062 123.789062 L 34.496094 124.113281 L 34.25 123.757812 L 33.210938 123.007812 L 32.296875 122.4375 L 31.808594 121.550781 L 30.648438 120.625 L 29.59375 120.214844 L 29.480469 119.867188 L 29.386719 119.175781 L 28.546875 119.632812 L 28.210938 120.640625 L 27.917969 120.964844 L 27.367188 121.101562 L 26.996094 120.5625 L 27.199219 119.546875 L 27.980469 117.886719 L 28.304688 117.050781 L 28.257812 115.679688 L 27.921875 114.628906 L 28.46875 114.492188 L 28.953125 115.378906 L 29.605469 115.765625 L 29.894531 115.441406 L 29.703125 114.230469 L 28.828125 113.148438 L 28.476562 112.269531 L 27.964844 111.890625 L 27.324219 111.335938 L 26.519531 111.285156 L 26.082031 109.714844 L 25.402344 107.785156 L 24.296875 106.171875 L 22.734375 105.378906 L 21.308594 104.597656 L 20.207031 102.980469 L 19.535156 101.046875 L 18.453125 99.257812 L 17.417969 98.671875 L 16.933594 97.949219 L 16.582031 97.238281 L 15.707031 96.320312 L 14.957031 95.582031 L 14.628906 94.527344 L 13.347656 93.75 L 12.382812 92.304688 L 11.777344 91.402344 L 12.121094 90.398438 L 12.753906 89.074219 L 13.09375 88.070312 L 11.957031 85.414062 L 10.882812 81.902344 L 10.640625 79.828125 L 10.714844 77.085938 L 11.386719 75.25 L 12.1875 73.425781 L 12.1875 71.710938 L 12.421875 70.355469 L 12.101562 69.300781 L 11.5625 67.714844 L 11.691406 66.011719 L 10.625 64.386719 L 9.601562 63.960938 L 9.445312 62.578125 L 8.738281 61.492188 L 8.132812 60.757812 L 7.691406 59.695312 L 7.085938 58.960938 L 6.734375 58.417969 L 6.175781 57.171875 L 6.125 56.136719 L 5.132812 55.371094 L 4.519531 54.804688 L 3.554688 53.695312 L 2.476562 52.40625 L 1.355469 51.628906 L 0.398438 50.515625 L 0.324219 49.824219 L 0.972656 48.332031 L 0.828125 46.945312 L 0 45.84375 L 0.300781 43.808594 L 1.601562 40.824219 L 2.839844 38.523438 L 4.796875 35.421875 L 6.328125 32.628906 L 7.417969 30.488281 L 8.074219 28.824219 L 7.4375 27.054688 L 6.933594 25.296875 L 7.589844 23.632812 L 8.433594 24.390625 L 8.75 23.726562 L 8.660156 21.660156 L 9.585938 19.847656 L 9.996094 17.992188 L 10.234375 16.636719 L 10.261719 16.296875 L 9.988281 14.902344 L 9.773438 14.367188 L 9.703125 13.675781 L 10.472656 13.738281 L 10.171875 12.683594 L 9.375 11.417969 L 9.257812 9.691406 L 8.4375 7.214844 L 7.710938 6.640625 L 7.019531 5.722656 L 6.863281 4.507812 L 7.234375 3.164062 L 7.859375 1.84375 L 8.199219 0.84375 L 8.402344 0 L 15.917969 0.449219 L 22.53125 0.96875 L 29.402344 1.480469 L 50.128906 2.882812 L 68.5625 3.9375 L 81.546875 4.234375 Z "/>
<path style="fill-rule:nonzero;fill:rgb(100%,100%,26.666667%);fill-opacity:0.588235;stroke-width:0.75;stroke-linecap:round;stroke-linejoin:round;stroke:rgb(30.196078%,30.196078%,30.196078%);stroke-opacity:1;stroke-miterlimit:10;" d="M 228.898438 247.667969 L 226.691406 239.9375 L 216.101562 226.046875 L 214.144531 220.546875 L 214.816406 215.695312 L 217.742188 211.390625 L 220.953125 209.925781 L 225.644531 214.144531 L 225.714844 217.976562 L 229.847656 222.679688 L 232.101562 230.15625 L 238.554688 235.789062 L 231.207031 241.199219 Z M 20.242188 1.136719 L 7.742188 0.101562 L 7.925781 2.265625 L 6.160156 6.492188 L 8.261719 8.25 L 9.1875 13.503906 L 10.199219 14.191406 L 9.453125 13.867188 L 9.535156 17.359375 L 16.648438 14.472656 L 18.777344 10.839844 Z "/>
<path style="fill-rule:nonzero;fill:rgb(100%,82.745098%,52.156863%);fill-opacity:0.588235;stroke-width:0.75;stroke-linecap:round;stroke-linejoin:round;stroke:rgb(30.196078%,30.196078%,30.196078%);stroke-opacity:1;stroke-miterlimit:10;" d="M 220.953125 209.925781 L 217.742188 211.390625 L 214.816406 215.695312 L 214.144531 220.546875 L 216.101562 226.046875 L 226.691406 239.9375 L 228.898438 247.667969 L 229.363281 257.128906 L 224.460938 261.640625 L 225.136719 271.042969 L 231.167969 274.371094 L 229.859375 280.777344 L 216.378906 282.421875 L 218.722656 273.730469 L 212.667969 263.667969 L 213.695312 249.453125 L 210.464844 242.597656 L 204.714844 235 L 202.351562 227.164062 L 204.597656 219 L 210.984375 213.273438 L 216.039062 205.480469 Z M 25.167969 1.519531 L 20.242188 1.136719 L 18.777344 10.839844 L 16.648438 14.472656 L 9.535156 17.359375 L 9.042969 19.785156 L 17.027344 20.429688 L 20.179688 19.757812 L 22.546875 17.261719 L 25.035156 8.644531 Z "/>
<path style="fill-rule:nonzero;fill:rgb(100%,66.666667%,0%);fill-opacity:0.588235;stroke-width:0.75;stroke-linecap:round;stroke-linejoin:round;stroke:rgb(30.196078%,30.196078%,30.196078%);stroke-opacity:1;stroke-miterlimit:10;" d="M 216.039062 205.480469 L 210.984375 213.273438 L 204.597656 219 L 202.351562 227.164062 L 204.714844 235 L 210.464844 242.597656 L 213.695312 249.453125 L 212.667969 263.667969 L 217.929688 271.453125 L 218.722656 273.730469 L 216.378906 282.421875 L 183.691406 286.113281 L 180.289062 276.386719 L 176.5 262.703125 L 173.351562 255.632812 L 169.96875 249.800781 L 167.011719 241.34375 L 166.484375 233.027344 L 168.28125 225.882812 L 164.648438 217.457031 L 163.519531 213.335938 L 162.683594 202.535156 L 163.539062 195.652344 L 166.40625 187.367188 L 172.347656 179.253906 L 181.804688 173.78125 Z M 49.257812 3.207031 L 25.167969 1.519531 L 25.035156 8.644531 L 22.546875 17.261719 L 20.179688 19.757812 L 9.042969 19.785156 L 8.542969 21.644531 L 14.394531 21.363281 L 22.300781 27.324219 L 25.308594 27.980469 L 31.605469 26.636719 L 41.996094 17.109375 L 49.785156 15.292969 L 57.828125 15.535156 L 58.5625 13.847656 L 57.84375 9.625 L 56.132812 6.933594 Z "/>
<path style="fill-rule:nonzero;fill:rgb(94.901961%,0%,0%);fill-opacity:0.588235;stroke-width:0.75;stroke-linecap:round;stroke-linejoin:round;stroke:rgb(30.196078%,30.196078%,30.196078%);stroke-opacity:1;stroke-miterlimit:10;" d="M 162.367188 280.867188 L 162.480469 281.210938 L 162.046875 281.101562 L 162.386719 280.558594 Z M 43.292969 128.507812 L 41.894531 128.222656 L 41.855469 128.640625 L 44.367188 129.523438 Z M 41.070312 127.675781 L 41.070312 127.078125 L 40.972656 127.738281 L 41.34375 127.707031 Z M 26.1875 130.082031 L 26.175781 130.027344 L 26.066406 130.039062 L 26.101562 130.175781 Z M 25.925781 130.019531 L 25.832031 130.046875 L 25.980469 130.128906 Z M 25.382812 129.179688 L 25.316406 129.152344 L 25.300781 129.21875 L 25.425781 129.222656 Z M 39.933594 126.316406 L 39.769531 125.8125 L 39.359375 126.234375 L 39.753906 126.40625 Z M 60.019531 121.863281 L 60.101562 121.644531 L 60.339844 121.042969 L 60.113281 121.207031 Z M 23.910156 128.113281 L 23.910156 128.085938 L 23.761719 128.054688 L 23.785156 128.148438 Z M 23.78125 127.769531 L 23.714844 127.6875 L 23.601562 127.765625 L 23.65625 127.832031 Z M 54.921875 121.253906 L 54.839844 121.183594 L 54.019531 120.929688 L 55.40625 122.144531 Z M 53.941406 121.847656 L 53.621094 120.960938 L 53.015625 121.496094 L 53.351562 121.761719 Z M 56.859375 120.414062 L 57.042969 120.246094 L 57.078125 119.882812 L 56.527344 120.367188 Z M 49.601562 119.820312 L 49.300781 119.746094 L 50.25 120.257812 L 50.214844 120.09375 Z M 44.761719 120.5625 L 39.925781 123.128906 L 42.550781 125.308594 L 42.117188 128.203125 L 43.773438 128.574219 L 44.589844 129.476562 L 43.679688 130.042969 L 45.714844 132.222656 L 46.726562 137.222656 L 49.5 138.566406 L 46.976562 138.730469 L 41.074219 134.28125 L 40.21875 132.785156 L 41.210938 130.191406 L 40.609375 128.363281 L 38.480469 127.5625 L 37.589844 128.402344 L 37.050781 135.738281 L 39.582031 141.214844 L 39.128906 145.824219 L 45.253906 153.058594 L 50.808594 153.371094 L 53.730469 158.09375 L 51.535156 163.75 L 49.484375 163.144531 L 48.410156 164.761719 L 49.503906 165.683594 L 49.785156 173.027344 L 55.011719 177.609375 L 62.875 189.484375 L 64.765625 182.714844 L 61.539062 175.640625 L 60.578125 169.882812 L 61.214844 167.4375 L 63.023438 161.296875 L 63.164062 152.496094 L 58.078125 142.179688 L 57.8125 137.597656 L 57.214844 132.125 L 59.878906 122.246094 L 58.738281 121.671875 L 60.148438 120.398438 L 57.851562 120.402344 L 57.195312 122.746094 L 49.574219 120.820312 L 46.644531 121.710938 Z M 5.785156 35.386719 L 5.675781 35.382812 L 5.542969 35.648438 L 6.019531 35.40625 Z M 181.804688 173.78125 L 155.90625 148.878906 L 105.566406 102.042969 L 104.320312 112.671875 L 106.621094 117.925781 L 112.371094 128.328125 L 117.214844 134.324219 L 126.035156 141.824219 L 129.28125 146.457031 L 144.011719 180.902344 L 144.425781 193.382812 L 140.460938 207.707031 L 137.007812 213.828125 L 136.121094 219.582031 L 141.488281 222.226562 L 142.695312 227.492188 L 151.128906 230.308594 L 153.109375 250.3125 L 150.671875 260.53125 L 159.269531 270.105469 L 161.445312 277.339844 L 160.769531 279.621094 L 161.417969 281.464844 L 161.5 280.535156 L 162.542969 280.453125 L 162.519531 281.238281 L 161.398438 281.75 L 161.605469 284.21875 L 162.574219 282.386719 L 164.613281 283.863281 L 164.949219 286.25 L 163.535156 283.304688 L 162.050781 283.523438 L 164.023438 284.929688 L 164.609375 288.082031 L 183.691406 286.113281 L 176.5 262.703125 L 169.96875 249.800781 L 167.011719 241.34375 L 166.484375 233.027344 L 168.28125 225.882812 L 163.519531 213.335938 L 162.683594 202.535156 L 163.539062 195.652344 L 166.40625 187.367188 L 172.347656 179.253906 Z M 99.636719 51.777344 L 101.242188 5.804688 L 49.257812 3.207031 L 56.132812 6.933594 L 57.84375 9.625 L 58.5625 13.847656 L 57.828125 15.535156 L 49.785156 15.292969 L 41.996094 17.109375 L 31.605469 26.636719 L 25.308594 27.980469 L 22.300781 27.324219 L 15.578125 21.820312 L 14.394531 21.363281 L 8.542969 21.644531 L 6.554688 26.097656 L 7.175781 30.742188 L 4.207031 36.824219 L 4.996094 36.363281 L 6.230469 33.976562 L 7.628906 35.054688 L 5.414062 35.808594 L 4.199219 39.25 L 3.28125 38.664062 L 4.105469 37.078125 L 1.878906 40.675781 L 2.589844 39.628906 L 2.667969 40.621094 L -0.667969 46.234375 L -0.0234375 51.636719 L 5.324219 56.703125 L 10.671875 65.355469 L 11.941406 73.671875 L 10.121094 79.679688 L 12.574219 88.785156 L 11.457031 92.675781 L 19.832031 103.808594 L 24.402344 107.59375 L 25.640625 112.082031 L 27.109375 112.351562 L 30.792969 118.773438 L 29.246094 117.351562 L 27.175781 114.019531 L 28.0625 116.746094 L 26.023438 121.3125 L 27.367188 121.554688 L 28.34375 118.59375 L 28.113281 119.953125 L 29.191406 120.445312 L 28.324219 120.40625 L 37.328125 127.367188 L 38.679688 126.824219 L 38.09375 125.105469 L 39.558594 125.496094 L 38.023438 123.5625 L 39.488281 122.398438 L 38.429688 121.316406 L 38.613281 118.617188 L 40.820312 117.492188 L 44.289062 120.15625 L 42.789062 116.640625 L 43.148438 115.542969 L 43.773438 114.84375 L 43.707031 115.234375 L 43.203125 115.585938 L 43.246094 116.007812 L 43.054688 116.433594 L 43.742188 116.953125 L 43.882812 118.96875 L 46.414062 121.09375 L 47.074219 121.101562 L 49.332031 117.558594 L 50.394531 117.003906 L 50.289062 117.3125 L 49.859375 117.53125 L 49.472656 117.535156 L 48.949219 118.519531 L 50.34375 118.421875 L 49.839844 119.730469 L 52.375 121.222656 L 56.339844 120.199219 L 58.429688 117.773438 L 57.046875 120.503906 L 55.128906 121.164062 L 56.210938 121.976562 L 58.066406 120.085938 L 59.597656 119.859375 L 60.527344 120.234375 L 60.4375 120.796875 L 63.785156 115.410156 L 69.210938 111.667969 L 83.984375 106.722656 L 85.367188 105.792969 L 89.039062 90.042969 L 91.839844 83.214844 L 92.351562 78.609375 L 91.664062 74.671875 L 89.132812 65.824219 L 87.699219 50.300781 L 90.425781 46.742188 L 92.792969 46.636719 L 94.542969 47.484375 L 96.425781 48.914062 Z "/>
<path style="fill-rule:nonzero;fill:rgb(47.45098%,0%,0%);fill-opacity:0.588235;stroke-width:0.75;stroke-linecap:round;stroke-linejoin:round;stroke:rgb(30.196078%,30.196078%,30.196078%);stroke-opacity:1;stroke-miterlimit:10;" d="M 128.003906 273.132812 L 128.683594 273.296875 L 133.894531 279.582031 L 131.96875 280.019531 L 130.371094 278.65625 Z M 127.625 272.851562 L 127.535156 272.699219 L 127.410156 272.792969 L 127.515625 272.902344 Z M 128.992188 259.863281 L 127.816406 259.78125 L 130.398438 261.101562 L 131.34375 264.4375 L 135.183594 264.886719 L 133.695312 261.914062 Z M 103.613281 265.304688 L 104.984375 266.90625 L 107.183594 266.730469 L 104.632812 265.042969 Z M 117.261719 259.292969 L 116.792969 259.375 L 117.039062 259.933594 L 117.28125 259.523438 Z M 137.523438 251.5625 L 136.605469 251.5 L 136.164062 252.125 L 136.328125 252.65625 L 136.285156 252.207031 Z M 108.59375 243.578125 L 108.320312 243.609375 L 108.605469 243.753906 L 108.96875 243.519531 L 108.859375 243.488281 Z M 109.492188 243.421875 L 109.464844 243.328125 L 109.023438 243.4375 L 109.3125 243.484375 Z M 108.210938 243.59375 L 107.886719 243.328125 L 107.421875 243.371094 L 107.878906 243.640625 Z M 87.628906 242.972656 L 90.429688 246.476562 L 94.257812 245.203125 L 92.394531 242.316406 Z M 96.21875 241.273438 L 95.320312 241.671875 L 98 244.804688 L 105.417969 242.730469 L 101.746094 243.179688 Z M 85.582031 241.355469 L 85.378906 241.257812 L 85.277344 241.375 L 85.402344 241.460938 Z M 84.746094 241.296875 L 84.523438 240.859375 L 82.378906 242.1875 L 86.214844 242.492188 Z M 105.566406 102.042969 L 98.171875 94.878906 L 99.636719 51.777344 L 94.542969 47.484375 L 90.425781 46.742188 L 87.699219 50.300781 L 87.652344 52.863281 L 89.132812 65.824219 L 92.351562 78.609375 L 91.839844 83.214844 L 89.039062 90.042969 L 86.316406 104.597656 L 85.367188 105.792969 L 83.984375 106.722656 L 69.210938 111.667969 L 63.785156 115.410156 L 60.4375 120.796875 L 64.082031 122.101562 L 61.921875 122.109375 L 61.605469 121.601562 L 61.433594 122.824219 L 60.339844 121.042969 L 59.976562 122.21875 L 59.878906 122.246094 L 58.78125 125.171875 L 57.757812 128.820312 L 57.214844 132.125 L 58.078125 142.179688 L 63.164062 152.496094 L 63.023438 161.296875 L 60.578125 169.882812 L 61.539062 175.640625 L 64.765625 182.714844 L 63.21875 191.332031 L 66.800781 193.960938 L 70.441406 199.171875 L 73.222656 200.011719 L 74.539062 203.03125 L 73.628906 203.683594 L 73.792969 202.078125 L 72.765625 205.324219 L 73.382812 206.445312 L 78.9375 209.21875 L 77.933594 216.070312 L 79.34375 217.375 L 78.597656 220.371094 L 79.425781 222.027344 L 78.042969 225.792969 L 81.207031 227.3125 L 82.328125 229.71875 L 90.46875 229.351562 L 96.898438 231.453125 L 104.691406 231.523438 L 111.515625 235.933594 L 113.015625 239.632812 L 115.199219 241.078125 L 123.089844 244.203125 L 130.132812 243.421875 L 133.332031 249.203125 L 132.808594 252.039062 L 135.796875 253.15625 L 136.09375 251.203125 L 137.769531 251.015625 L 138.371094 252.179688 L 139.753906 251.214844 L 144.789062 256.234375 L 145.867188 256.53125 L 144.6875 255.972656 L 145.964844 254.871094 L 145.621094 255.863281 L 145.316406 256.070312 L 145.671875 256.066406 L 148.304688 258.171875 L 149.980469 260.554688 L 150.671875 260.53125 L 153.109375 250.3125 L 151.128906 230.308594 L 142.695312 227.492188 L 141.488281 222.226562 L 136.121094 219.582031 L 137.007812 213.828125 L 140.460938 207.707031 L 144.425781 193.382812 L 144.011719 180.902344 L 129.28125 146.457031 L 126.035156 141.824219 L 117.214844 134.324219 L 112.371094 128.328125 L 106.621094 117.925781 L 104.320312 112.671875 Z "/>
</g>
</svg>
